<svg xmlns="http://www.w3.org/2000/svg" viewBox="0 0 24 24" color="#f5f6ef"><g transform="scale(.24)"><path d="M50 1 57 30 54 48 50 56 46 48 43 30ZM29 10 41 24 43 46 33 35ZM71 10 59 24 57 46 67 35ZM11 25 34 44 40 54 22 45ZM89 25 66 44 60 54 78 45ZM4 51 26 53 38 62 19 60ZM96 51 74 53 62 62 81 60Z" fill="currentColor" fill-rule="evenodd" stroke="none"/><path d="M34 67 40 56 50 52 60 56 66 67 60 80 62 87 50 97 38 87 40 80Z M50 59 42 67 50 77 58 67Z M44 82 44 86 50 91 56 86 56 82 50 86Z" fill="currentColor" fill-rule="evenodd" stroke="none"/><path d="M24 65Q2 77 35 88 7 87 9 75 13 68 24 65ZM76 65Q98 77 65 88 93 87 91 75 87 68 76 65Z" fill="currentColor" fill-rule="evenodd" stroke="none"/><path d="M29 58C1 44 14 33 29 36M71 58C99 44 86 33 71 36M24 90Q50 108 76 90" fill="none" stroke="currentColor" stroke-width="1.3" opacity="0.8" stroke-linecap="round" stroke-linejoin="round"/><path d="M50 63 54 67 50 71 46 67Z" fill="currentColor" fill-rule="evenodd" stroke="none"/><path d="M17 13 19 15 17 17 15 15Z" fill="currentColor" fill-rule="evenodd" stroke="none"/><path d="M83 13 85 15 83 17 81 15Z" fill="currentColor" fill-rule="evenodd" stroke="none"/></g></svg>